{
  "source": "C:\\Users\\Peter\\Desktop\\stuff\\MIUN\\quantitative_research\\video_compression\\videos\\UVG\\Beauty_1920x1080_120fps_420_8bit_YUV.y4m",
  "output": "C:\\Users\\Peter\\Desktop\\stuff\\MIUN\\quantitative_research\\video_compression\\compressed_videos\\UVG\\h264\\12\\Beauty_1920x1080_120fps_420_8bit_YUV_h264.mp4",
  "codec": "h264",
  "ok": "[yuv4mpegpipe @ 000001b497c95e80] Stream #0: not enough frames to estimate rate; consider increasing probesize\nInput #0, yuv4mpegpipe, from 'C:\\Users\\Peter\\Desktop\\stuff\\MIUN\\quantitative_research\\video_compression\\videos\\UVG\\Beauty_1920x1080_120fps_420_8bit_YUV.y4m':\n  Duration: 00:00:05.00, start: 0.000000, bitrate: 2985989 kb/s\n  Stream #0:0: Video: rawvideo (I420 / 0x30323449), yuv420p(progressive), 1920x1080, 120 fps, 120 tbr, 120 tbn\n[out#0/mp4 @ 000001b497c99d00] Codec AVOption b:a (set bitrate (in bits/s)) has not been used for any stream. The most likely reason is either wrong type (e.g. a video option with no video streams) or that it is a private option of some decoder which was not actually used for any stream.\nStream mapping:\n  Stream #0:0 -> #0:0 (rawvideo (native) -> h264 (libx264))\nPress [q] to stop, [?] for help\n[libx264 @ 000001b497c9cdc0] using cpu capabilities: MMX2 SSE2Fast SSSE3 SSE4.2 AVX FMA3 BMI2 AVX2\n[libx264 @ 000001b497c9cdc0] profile High, level 5.1, 4:2:0, 8-bit\n[libx264 @ 000001b497c9cdc0] 264 - core 165 r3222 b35605a - H.264/MPEG-4 AVC codec - Copyleft 2003-2025 - http://www.videolan.org/x264.html - options: cabac=1 ref=5 deblock=1:0:0 analyse=0x3:0x113 me=hex subme=8 psy=1 psy_rd=1.00:0.00 mixed_ref=1 me_range=16 chroma_me=1 trellis=2 8x8dct=1 cqm=0 deadzone=21,11 fast_pskip=1 chroma_qp_offset=-2 threads=18 lookahead_threads=3 sliced_threads=0 nr=0 decimate=1 interlaced=0 bluray_compat=0 constrained_intra=0 bframes=3 b_pyramid=2 b_adapt=1 b_bias=0 direct=3 weightb=1 open_gop=0 weightp=2 keyint=250 keyint_min=25 scenecut=40 intra_refresh=0 rc_lookahead=50 rc=cbr mbtree=1 bitrate=12000 ratetol=1.0 qcomp=0.60 qpmin=0 qpmax=69 qpstep=4 vbv_maxrate=12000 vbv_bufsize=12000 nal_hrd=none filler=0 ip_ratio=1.40 aq=1:1.00\nOutput #0, mp4, to 'C:\\Users\\Peter\\Desktop\\stuff\\MIUN\\quantitative_research\\video_compression\\compressed_videos\\UVG\\h264\\12\\Beauty_1920x1080_120fps_420_8bit_YUV_h264.mp4':\n  Metadata:\n    encoder         : Lavf62.3.100\n  Stream #0:0: Video: h264 (avc1 / 0x31637661), yuv420p(tv, progressive), 1920x1080, q=2-31, 12000 kb/s, 120 fps, 15360 tbn\n    Metadata:\n      encoder         : Lavc62.11.100 libx264\n    Side data:\n      cpb: bitrate max/min/avg: 12000000/0/12000000 buffer size: 12000000 vbv_delay: N/A\nframe=    0 fps=0.0 q=0.0 size=       0KiB time=N/A bitrate=N/A speed=N/A elapsed=0:00:00.51    \nframe=    0 fps=0.0 q=0.0 size=       0KiB time=N/A bitrate=N/A speed=N/A elapsed=0:00:01.08    \nframe=    0 fps=0.0 q=0.0 size=       0KiB time=N/A bitrate=N/A speed=N/A elapsed=0:00:01.62    \nframe=    0 fps=0.0 q=0.0 size=       0KiB time=N/A bitrate=N/A speed=N/A elapsed=0:00:02.15    \nframe=    0 fps=0.0 q=0.0 size=       0KiB time=N/A bitrate=N/A speed=N/A elapsed=0:00:02.71    \nframe=    0 fps=0.0 q=0.0 size=       0KiB time=N/A bitrate=N/A speed=N/A elapsed=0:00:03.24    \nframe=    0 fps=0.0 q=0.0 size=       0KiB time=N/A bitrate=N/A speed=N/A elapsed=0:00:03.79    \nframe=    0 fps=0.0 q=0.0 size=       0KiB time=N/A bitrate=N/A speed=N/A elapsed=0:00:04.38    \nframe=    8 fps=1.6 q=34.0 size=       0KiB time=00:00:00.05 bitrate=   7.7kbits/s speed=0.0101x elapsed=0:00:04.93    \nframe=   12 fps=2.2 q=32.0 size=       0KiB time=00:00:00.08 bitrate=   4.6kbits/s speed=0.0152x elapsed=0:00:05.49    \nframe=   20 fps=3.3 q=30.0 size=       0KiB time=00:00:00.15 bitrate=   2.6kbits/s speed=0.0248x elapsed=0:00:06.05    \nframe=   26 fps=3.9 q=30.0 size=       0KiB time=00:00:00.20 bitrate=   1.9kbits/s speed=0.0303x elapsed=0:00:06.60    \nframe=   33 fps=4.6 q=30.0 size=       0KiB time=00:00:00.25 bitrate=   1.5kbits/s speed=0.0359x elapsed=0:00:07.18    \nframe=   33 fps=4.3 q=30.0 size=       0KiB time=00:00:00.25 bitrate=   1.5kbits/s speed=0.0333x elapsed=0:00:07.75    \nframe=   33 fps=4.0 q=30.0 size=       0KiB time=00:00:00.25 bitrate=   1.5kbits/s speed=0.031x elapsed=0:00:08.32    \nframe=   38 fps=4.3 q=30.0 size=     256KiB time=00:00:00.29 bitrate=7191.5kbits/s speed=0.0328x elapsed=0:00:08.88    \nframe=   45 fps=4.8 q=30.0 size=     256KiB time=00:00:00.35 bitrate=5853.6kbits/s speed=0.0379x elapsed=0:00:09.45    \nframe=   49 fps=4.9 q=31.0 size=     256KiB time=00:00:00.39 bitrate=5355.4kbits/s speed=0.0389x elapsed=0:00:10.06    \nframe=   53 fps=5.0 q=31.0 size=     512KiB time=00:00:00.42 bitrate=9869.9kbits/s speed=0.0399x elapsed=0:00:10.64    \nframe=   53 fps=4.7 q=31.0 size=     512KiB time=00:00:00.42 bitrate=9869.9kbits/s speed=0.038x elapsed=0:00:11.19    \nframe=   59 fps=5.0 q=31.0 size=     512KiB time=00:00:00.45 bitrate=9152.1kbits/s speed=0.039x elapsed=0:00:11.75    \nframe=   64 fps=5.2 q=31.0 size=     512KiB time=00:00:00.51 bitrate=8118.7kbits/s speed=0.0419x elapsed=0:00:12.31    \nframe=   66 fps=5.1 q=31.0 size=     512KiB time=00:00:00.53 bitrate=7865.0kbits/s speed=0.0415x elapsed=0:00:12.86    \nframe=   66 fps=4.9 q=31.0 size=     512KiB time=00:00:00.53 bitrate=7865.0kbits/s speed=0.0398x elapsed=0:00:13.38    \nframe=   66 fps=4.7 q=31.0 size=     512KiB time=00:00:00.53 bitrate=7865.0kbits/s speed=0.0383x elapsed=0:00:13.92    \nframe=   67 fps=4.6 q=31.0 size=     512KiB time=00:00:00.54 bitrate=7744.0kbits/s speed=0.0374x elapsed=0:00:14.46    \nframe=   67 fps=4.5 q=31.0 size=     512KiB time=00:00:00.54 bitrate=7744.0kbits/s speed=0.0361x elapsed=0:00:15.00    \nframe=   69 fps=4.4 q=31.0 size=     512KiB time=00:00:00.55 bitrate=7512.9kbits/s speed=0.0359x elapsed=0:00:15.55    \nframe=   69 fps=4.3 q=31.0 size=     512KiB time=00:00:00.55 bitrate=7512.9kbits/s speed=0.0347x elapsed=0:00:16.09    \nframe=   71 fps=4.3 q=31.0 size=     512KiB time=00:00:00.57 bitrate=7295.1kbits/s speed=0.0345x elapsed=0:00:16.65    \nframe=   75 fps=4.4 q=31.0 size=     768KiB time=00:00:00.60 bitrate=10342.8kbits/s speed=0.0354x elapsed=0:00:17.19    \nframe=   78 fps=4.4 q=30.0 size=     768KiB time=00:00:00.63 bitrate=9934.5kbits/s speed=0.0357x elapsed=0:00:17.72    \nframe=   81 fps=4.4 q=31.0 size=     768KiB time=00:00:00.65 bitrate=9557.2kbits/s speed=0.036x elapsed=0:00:18.27    \nframe=   84 fps=4.5 q=30.0 size=     768KiB time=00:00:00.68 bitrate=9207.6kbits/s speed=0.0363x elapsed=0:00:18.81    \nframe=   87 fps=4.5 q=31.0 size=     768KiB time=00:00:00.70 bitrate=8988.3kbits/s speed=0.0362x elapsed=0:00:19.36    \nframe=   90 fps=4.5 q=31.0 size=     768KiB time=00:00:00.72 bitrate=8678.4kbits/s speed=0.0364x elapsed=0:00:19.90    \nframe=   93 fps=4.5 q=31.0 size=     768KiB time=00:00:00.75 bitrate=8296.9kbits/s speed=0.0371x elapsed=0:00:20.44    \nframe=   96 fps=4.6 q=31.0 size=    1024KiB time=00:00:00.78 bitrate=10709.4kbits/s speed=0.0373x elapsed=0:00:20.98    \nframe=   99 fps=4.6 q=31.0 size=    1024KiB time=00:00:00.80 bitrate=10486.2kbits/s speed=0.0372x elapsed=0:00:21.53    \nframe=  102 fps=4.6 q=31.0 size=    1024KiB time=00:00:00.82 bitrate=10168.5kbits/s speed=0.0374x elapsed=0:00:22.06    \nframe=  105 fps=4.6 q=31.0 size=    1024KiB time=00:00:00.85 bitrate=9869.4kbits/s speed=0.0376x elapsed=0:00:22.61    \nframe=  107 fps=4.6 q=31.0 size=    1024KiB time=00:00:00.87 bitrate=9587.4kbits/s speed=0.0378x elapsed=0:00:23.17    \nframe=  110 fps=4.6 q=31.0 size=    1280KiB time=00:00:00.90 bitrate=11651.3kbits/s speed=0.0379x elapsed=0:00:23.73    \nframe=  113 fps=4.7 q=31.0 size=    1280KiB time=00:00:00.92 bitrate=11336.4kbits/s speed=0.0381x elapsed=0:00:24.29    \nframe=  116 fps=4.7 q=31.0 size=    1280KiB time=00:00:00.95 bitrate=11038.0kbits/s speed=0.0382x elapsed=0:00:24.84    \nframe=  119 fps=4.7 q=31.0 size=    1280KiB time=00:00:00.97 bitrate=10755.0kbits/s speed=0.0384x elapsed=0:00:25.38    \nframe=  122 fps=4.7 q=31.0 size=    1280KiB time=00:00:01.00 bitrate=10486.1kbits/s speed=0.0386x elapsed=0:00:25.93    \nframe=  125 fps=4.7 q=31.0 size=    1280KiB time=00:00:01.02 bitrate=10230.4kbits/s speed=0.0387x elapsed=0:00:26.48    \nframe=  128 fps=4.7 q=31.0 size=    1536KiB time=00:00:01.05 bitrate=11984.1kbits/s speed=0.0388x elapsed=0:00:27.03    \nframe=  131 fps=4.8 q=31.0 size=    1536KiB time=00:00:01.07 bitrate=11705.4kbits/s speed=0.039x elapsed=0:00:27.57    \nframe=  134 fps=4.8 q=31.0 size=    1536KiB time=00:00:01.10 bitrate=11439.4kbits/s speed=0.0391x elapsed=0:00:28.12    \nframe=  138 fps=4.8 q=31.0 size=    1536KiB time=00:00:01.12 bitrate=11185.2kbits/s speed=0.0392x elapsed=0:00:28.67    \nframe=  140 fps=4.8 q=31.0 size=    1536KiB time=00:00:01.15 bitrate=10942.0kbits/s speed=0.0393x elapsed=0:00:29.23    \nframe=  143 fps=4.8 q=31.0 size=    1536KiB time=00:00:01.17 bitrate=10709.2kbits/s speed=0.0395x elapsed=0:00:29.78    \nframe=  145 fps=4.8 q=31.0 size=    1536KiB time=00:00:01.19 bitrate=10559.4kbits/s speed=0.0393x elapsed=0:00:30.33    \nframe=  147 fps=4.8 q=31.0 size=    1536KiB time=00:00:01.20 bitrate=10413.8kbits/s speed=0.0391x elapsed=0:00:30.88    \nframe=  150 fps=4.8 q=31.0 size=    1792KiB time=00:00:01.23 bitrate=11903.1kbits/s speed=0.0392x elapsed=0:00:31.45    \nframe=  153 fps=4.8 q=31.0 size=    1792KiB time=00:00:01.25 bitrate=11744.4kbits/s speed=0.039x elapsed=0:00:32.04    \nframe=  155 fps=4.7 q=31.0 size=    1792KiB time=00:00:01.26 bitrate=11589.8kbits/s speed=0.0388x elapsed=0:00:32.63    \nframe=  158 fps=4.8 q=31.0 size=    1792KiB time=00:00:01.30 bitrate=11292.7kbits/s speed=0.0391x elapsed=0:00:33.21    \nframe=  161 fps=4.8 q=31.0 size=    1792KiB time=00:00:01.31 bitrate=11149.7kbits/s speed=0.039x elapsed=0:00:33.77    \nframe=  163 fps=4.7 q=31.0 size=    1792KiB time=00:00:01.34 bitrate=10941.9kbits/s speed=0.0391x elapsed=0:00:34.34    \nframe=  166 fps=4.8 q=31.0 size=    1792KiB time=00:00:01.36 bitrate=10741.8kbits/s speed=0.0391x elapsed=0:00:34.91    \nframe=  170 fps=4.8 q=31.0 size=    2048KiB time=00:00:01.40 bitrate=11984.0kbits/s speed=0.0394x elapsed=0:00:35.49    \nframe=  173 fps=4.8 q=31.0 size=    2048KiB time=00:00:01.42 bitrate=11773.8kbits/s speed=0.0395x elapsed=0:00:36.06    \nframe=  177 fps=4.8 q=31.0 size=    2048KiB time=00:00:01.45 bitrate=11504.6kbits/s speed=0.0398x elapsed=0:00:36.62    \nframe=  179 fps=4.8 q=31.0 size=    2048KiB time=00:00:01.47 bitrate=11374.6kbits/s speed=0.0397x elapsed=0:00:37.19    \nframe=  183 fps=4.8 q=31.0 size=    2048KiB time=00:00:01.50 bitrate=11185.1kbits/s speed=0.0397x elapsed=0:00:37.80    \nframe=  186 fps=4.8 q=31.0 size=    2048KiB time=00:00:01.52 bitrate=11001.7kbits/s speed=0.0397x elapsed=0:00:38.38    \nframe=  189 fps=4.9 q=31.0 size=    2048KiB time=00:00:01.55 bitrate=10766.4kbits/s speed=0.04x elapsed=0:00:38.96    \nframe=  192 fps=4.9 q=31.0 size=    2304KiB time=00:00:01.58 bitrate=11920.9kbits/s speed=0.0401x elapsed=0:00:39.52    \nframe=  195 fps=4.9 q=31.0 size=    2304KiB time=00:00:01.60 bitrate=11735.6kbits/s speed=0.0401x elapsed=0:00:40.07    \nframe=  198 fps=4.9 q=31.0 size=    2304KiB time=00:00:01.63 bitrate=11556.0kbits/s speed=0.0402x elapsed=0:00:40.64    \nframe=  201 fps=4.9 q=31.0 size=    2304KiB time=00:00:01.65 bitrate=11381.8kbits/s speed=0.0402x elapsed=0:00:41.21    \nframe=  204 fps=4.9 q=31.0 size=    2304KiB time=00:00:01.68 bitrate=11212.7kbits/s speed=0.0403x elapsed=0:00:41.79    \nframe=  207 fps=4.9 q=31.0 size=    2304KiB time=00:00:01.70 bitrate=11102.8kbits/s speed=0.0401x elapsed=0:00:42.37    \nframe=  210 fps=4.9 q=31.0 size=    2304KiB time=00:00:01.72 bitrate=10941.9kbits/s speed=0.0402x elapsed=0:00:42.94    \nframe=  212 fps=4.9 q=31.0 size=    2560KiB time=00:00:01.75 bitrate=11983.9kbits/s speed=0.0402x elapsed=0:00:43.52    \nframe=  214 fps=4.9 q=31.0 size=    2560KiB time=00:00:01.76 bitrate=11870.9kbits/s speed=0.0401x elapsed=0:00:44.10    \nframe=  217 fps=4.9 q=31.0 size=    2560KiB time=00:00:01.79 bitrate=11705.2kbits/s speed=0.0401x elapsed=0:00:44.68    \nframe=  219 fps=4.8 q=31.0 size=    2560KiB time=00:00:01.80 bitrate=11597.4kbits/s speed=0.04x elapsed=0:00:45.24    \nframe=  222 fps=4.8 q=31.0 size=    2560KiB time=00:00:01.83 bitrate=11439.2kbits/s speed=0.04x elapsed=0:00:45.81    \nframe=  224 fps=4.8 q=31.0 size=    2560KiB time=00:00:01.85 bitrate=11336.2kbits/s speed=0.0399x elapsed=0:00:46.37    \nframe=  227 fps=4.8 q=31.0 size=    2560KiB time=00:00:01.87 bitrate=11185.0kbits/s speed=0.0399x elapsed=0:00:46.94    \nframe=  231 fps=4.9 q=31.0 size=    2816KiB time=00:00:01.90 bitrate=12088.6kbits/s speed=0.0402x elapsed=0:00:47.49    \nframe=  237 fps=4.9 q=31.0 size=    2816KiB time=00:00:01.95 bitrate=11779.9kbits/s speed=0.0408x elapsed=0:00:48.04    \nframe=  245 fps=5.0 q=31.0 size=    2816KiB time=00:00:02.01 bitrate=11439.2kbits/s speed=0.0415x elapsed=0:00:48.61    \nframe=  248 fps=5.0 q=31.0 size=    2816KiB time=00:00:02.05 bitrate=11253.2kbits/s speed=0.0417x elapsed=0:00:49.16    \nframe=  253 fps=5.1 q=31.0 size=    3072KiB time=00:00:02.09 bitrate=12031.7kbits/s speed=0.0421x elapsed=0:00:49.72    \nframe=  259 fps=5.1 q=32.0 size=    3072KiB time=00:00:02.14 bitrate=11750.8kbits/s speed=0.0426x elapsed=0:00:50.29    \nframe=  266 fps=5.2 q=32.0 size=    3072KiB time=00:00:02.20 bitrate=11439.2kbits/s speed=0.0433x elapsed=0:00:50.83    \nframe=  270 fps=5.3 q=32.0 size=    3328KiB time=00:00:02.20 bitrate=12345.7kbits/s speed=0.043x elapsed=0:00:51.40    \nframe=  270 fps=5.2 q=32.0 size=    3328KiB time=00:00:02.23 bitrate=12207.5kbits/s speed=0.043x elapsed=0:00:51.97    \nframe=  275 fps=5.2 q=32.0 size=    3328KiB time=00:00:02.27 bitrate=11983.9kbits/s speed=0.0433x elapsed=0:00:52.52    \nframe=  282 fps=5.3 q=32.0 size=    3328KiB time=00:00:02.33 bitrate=11684.3kbits/s speed=0.044x elapsed=0:00:53.08    \nframe=  289 fps=5.4 q=32.0 size=    3584KiB time=00:00:02.39 bitrate=12276.2kbits/s speed=0.0446x elapsed=0:00:53.64    \nframe=  294 fps=5.4 q=32.0 size=    3584KiB time=00:00:02.43 bitrate=12066.0kbits/s speed=0.0449x elapsed=0:00:54.21    \nframe=  299 fps=5.5 q=32.0 size=    3584KiB time=00:00:02.45 bitrate=11943.3kbits/s speed=0.0449x elapsed=0:00:54.76    \nframe=  302 fps=5.5 q=31.0 size=    3584KiB time=00:00:02.50 bitrate=11744.2kbits/s speed=0.0452x elapsed=0:00:55.32    \nframe=  309 fps=5.5 q=31.0 size=    3584KiB time=00:00:02.55 bitrate=11476.4kbits/s speed=0.0458x elapsed=0:00:55.90    \nframe=  314 fps=5.6 q=31.0 size=    3840KiB time=00:00:02.60 bitrate=12099.1kbits/s speed=0.046x elapsed=0:00:56.47    \nframe=  318 fps=5.6 q=31.0 size=    3840KiB time=00:00:02.63 bitrate=11945.9kbits/s speed=0.0462x elapsed=0:00:57.03    \nframe=  326 fps=5.7 q=31.0 size=    3840KiB time=00:00:02.70 bitrate=11651.0kbits/s speed=0.0469x elapsed=0:00:57.59    \nframe=  342 fps=5.9 q=31.0 size=    4096KiB time=00:00:02.73 bitrate=12276.2kbits/s speed=0.0468x elapsed=0:00:58.40    \nframe=  342 fps=5.7 q=31.0 size=    4096KiB time=00:00:02.83 bitrate=11842.9kbits/s speed=0.0476x elapsed=0:00:59.55    \nframe=  347 fps=5.7 q=31.0 size=    4096KiB time=00:00:02.87 bitrate=11671.2kbits/s speed=0.0476x elapsed=0:01:00.40    \nframe=  357 fps=5.8 q=31.0 size=    4096KiB time=00:00:02.92 bitrate=11471.7kbits/s speed=0.0478x elapsed=0:01:01.19    \nframe=  365 fps=5.9 q=31.0 size=    4352KiB time=00:00:03.02 bitrate=11785.8kbits/s speed=0.0487x elapsed=0:01:02.10    \nframe=  374 fps=5.9 q=31.0 size=    4352KiB time=00:00:03.10 bitrate=11500.6kbits/s speed=0.0492x elapsed=0:01:03.03    \nframe=  383 fps=6.0 q=31.0 size=    4608KiB time=00:00:03.17 bitrate=11889.5kbits/s speed=0.05x elapsed=0:01:03.55    \nframe=  386 fps=6.0 q=31.0 size=    4608KiB time=00:00:03.20 bitrate=11796.6kbits/s speed=0.0499x elapsed=0:01:04.06    \nframe=  394 fps=6.1 q=31.0 size=    4608KiB time=00:00:03.26 bitrate=11555.9kbits/s speed=0.0506x elapsed=0:01:04.57    \nframe=  405 fps=6.2 q=31.0 size=    4864KiB time=00:00:03.35 bitrate=11864.9kbits/s speed=0.0516x elapsed=0:01:05.10    \nframe=  410 fps=6.2 q=31.0 size=    4864KiB time=00:00:03.40 bitrate=11719.5kbits/s speed=0.0518x elapsed=0:01:05.62    \nframe=  414 fps=6.3 q=31.0 size=    4864KiB time=00:00:03.43 bitrate=11605.7kbits/s speed=0.0519x elapsed=0:01:06.13    \nframe=  426 fps=6.4 q=31.0 size=    5120KiB time=00:00:03.53 bitrate=11870.8kbits/s speed=0.053x elapsed=0:01:06.63    \nframe=  434 fps=6.5 q=31.0 size=    5120KiB time=00:00:03.60 bitrate=11651.0kbits/s speed=0.0536x elapsed=0:01:07.16    \nframe=  434 fps=6.4 q=31.0 size=    5120KiB time=00:00:03.60 bitrate=11651.0kbits/s speed=0.0532x elapsed=0:01:07.68    \nframe=  442 fps=6.5 q=31.0 size=    5376KiB time=00:00:03.66 bitrate=12011.1kbits/s speed=0.0538x elapsed=0:01:08.20    \nframe=  442 fps=6.4 q=31.0 size=    5376KiB time=00:00:03.66 bitrate=12011.1kbits/s speed=0.0534x elapsed=0:01:08.71    \nframe=  454 fps=6.6 q=31.0 size=    5376KiB time=00:00:03.76 bitrate=11692.2kbits/s speed=0.0544x elapsed=0:01:09.23    \nframe=  458 fps=6.6 q=31.0 size=    5376KiB time=00:00:03.80 bitrate=11589.6kbits/s speed=0.0545x elapsed=0:01:09.75    \nframe=  462 fps=6.6 q=31.0 size=    5376KiB time=00:00:03.83 bitrate=11488.8kbits/s speed=0.0546x elapsed=0:01:10.27    \nframe=  464 fps=6.6 q=31.0 size=    5632KiB time=00:00:03.85 bitrate=11983.8kbits/s speed=0.0544x elapsed=0:01:10.77    \nframe=  466 fps=6.5 q=31.0 size=    5632KiB time=00:00:03.86 bitrate=11932.2kbits/s speed=0.0542x elapsed=0:01:11.30    \nframe=  469 fps=6.5 q=31.0 size=    5632KiB time=00:00:03.89 bitrate=11855.5kbits/s speed=0.0542x elapsed=0:01:11.81    \nframe=  476 fps=6.6 q=31.0 size=    5632KiB time=00:00:03.95 bitrate=11680.4kbits/s speed=0.0546x elapsed=0:01:12.33    \nframe=  481 fps=6.6 q=31.0 size=    5632KiB time=00:00:03.99 bitrate=11558.5kbits/s speed=0.0548x elapsed=0:01:12.84    \nframe=  482 fps=6.6 q=31.0 size=    5632KiB time=00:00:04.00 bitrate=11534.4kbits/s speed=0.0545x elapsed=0:01:13.36    \nframe=  490 fps=6.6 q=31.0 size=    5888KiB time=00:00:04.06 bitrate=11861.0kbits/s speed=0.055x elapsed=0:01:13.87    \nframe=  497 fps=6.7 q=31.0 size=    5888KiB time=00:00:04.12 bitrate=11693.3kbits/s speed=0.0554x elapsed=0:01:14.39    \nframe=  500 fps=6.7 q=31.0 size=    5888KiB time=00:00:04.15 bitrate=11622.9kbits/s speed=0.0554x elapsed=0:01:14.90    \nframe=  501 fps=6.6 q=31.0 size=    5888KiB time=00:00:04.15 bitrate=11599.6kbits/s speed=0.0551x elapsed=0:01:15.42    \nframe=  511 fps=6.7 q=31.0 size=    6144KiB time=00:00:04.24 bitrate=11866.1kbits/s speed=0.0559x elapsed=0:01:15.94    \nframe=  517 fps=6.8 q=31.0 size=    6144KiB time=00:00:04.29 bitrate=11727.9kbits/s speed=0.0561x elapsed=0:01:16.46    \nframe=  519 fps=6.7 q=31.0 size=    6144KiB time=00:00:04.30 bitrate=11682.5kbits/s speed=0.056x elapsed=0:01:16.97    \nframe=  527 fps=6.8 q=31.0 size=    6400KiB time=00:00:04.37 bitrate=11983.8kbits/s speed=0.0565x elapsed=0:01:17.48    \nframe=  533 fps=6.8 q=31.0 size=    6400KiB time=00:00:04.42 bitrate=11848.4kbits/s speed=0.0567x elapsed=0:01:18.01    \nframe=  543 fps=6.9 q=31.0 size=    6400KiB time=00:00:04.50 bitrate=11629.4kbits/s speed=0.0574x elapsed=0:01:18.52    \nframe=  549 fps=6.9 q=31.0 size=    6656KiB time=00:00:04.55 bitrate=11961.9kbits/s speed=0.0577x elapsed=0:01:19.03    \nframe=  555 fps=7.0 q=31.0 size=    6656KiB time=00:00:04.60 bitrate=11832.1kbits/s speed=0.0579x elapsed=0:01:19.55    \nframe=  560 fps=7.0 q=31.0 size=    6656KiB time=00:00:04.65 bitrate=11726.1kbits/s speed=0.0581x elapsed=0:01:20.06    \nframe=  567 fps=7.0 q=31.0 size=    6912KiB time=00:00:04.70 bitrate=12026.2kbits/s speed=0.0584x elapsed=0:01:20.58    \nframe=  575 fps=7.1 q=31.0 size=    6912KiB time=00:00:04.77 bitrate=11858.3kbits/s speed=0.0589x elapsed=0:01:21.09    \nframe=  582 fps=7.1 q=-1.0 size=    6912KiB time=00:00:04.85 bitrate=11674.9kbits/s speed=0.0594x elapsed=0:01:21.60    \nframe=  588 fps=7.2 q=-1.0 size=    7168KiB time=00:00:04.88 bitrate=12024.7kbits/s speed=0.0595x elapsed=0:01:22.12    \nframe=  595 fps=7.2 q=-1.0 size=    7168KiB time=00:00:04.94 bitrate=11882.8kbits/s speed=0.0598x elapsed=0:01:22.65    \n[mp4 @ 000001b497c99e00] Starting second pass: moving the moov atom to the beginning of the file\n[out#0/mp4 @ 000001b497c99d00] video:7336KiB audio:0KiB subtitle:0KiB other streams:0KiB global headers:0KiB muxing overhead: 0.078045%\nframe=  600 fps=7.2 q=-1.0 Lsize=    7342KiB time=00:00:04.98 bitrate=12069.4kbits/s speed=0.0601x elapsed=0:01:22.89    \n[libx264 @ 000001b497c9cdc0] frame I:3     Avg QP:27.34  size: 66897\n[libx264 @ 000001b497c9cdc0] frame P:367   Avg QP:28.37  size: 14623\n[libx264 @ 000001b497c9cdc0] frame B:230   Avg QP:29.85  size:  8453\n[libx264 @ 000001b497c9cdc0] consecutive B-frames: 48.7%  0.7%  0.0% 50.7%\n[libx264 @ 000001b497c9cdc0] mb I  I16..4: 22.2% 64.9% 12.9%\n[libx264 @ 000001b497c9cdc0] mb P  I16..4:  0.2%  2.8%  0.2%  P16..4: 39.7%  4.3%  8.2%  0.0%  0.0%    skip:44.6%\n[libx264 @ 000001b497c9cdc0] mb B  I16..4:  0.0%  0.8%  0.0%  B16..8: 43.4%  2.5%  0.4%  direct: 1.1%  skip:51.6%  L0:46.1% L1:52.4% BI: 1.5%\n[libx264 @ 000001b497c9cdc0] 8x8 transform intra:83.9% inter:89.3%\n[libx264 @ 000001b497c9cdc0] direct mvs  spatial:95.7% temporal:4.3%\n[libx264 @ 000001b497c9cdc0] coded y,uvDC,uvAC intra: 65.8% 54.3% 16.7% inter: 8.6% 17.4% 0.1%\n[libx264 @ 000001b497c9cdc0] i16 v,h,dc,p: 12% 17%  4% 67%\n[libx264 @ 000001b497c9cdc0] i8 v,h,dc,ddl,ddr,vr,hd,vl,hu:  2%  4%  3%  8% 32% 13% 25%  6%  8%\n[libx264 @ 000001b497c9cdc0] i4 v,h,dc,ddl,ddr,vr,hd,vl,hu:  2%  3%  2% 10% 39% 11% 20%  5%  8%\n[libx264 @ 000001b497c9cdc0] i8c dc,h,v,p: 45% 25% 13% 17%\n[libx264 @ 000001b497c9cdc0] Weighted P-Frames: Y:0.0% UV:0.0%\n[libx264 @ 000001b497c9cdc0] ref P L0: 50.1% 14.1% 17.9%  6.5%  6.6%  4.7%\n[libx264 @ 000001b497c9cdc0] ref B L0: 75.4% 16.1%  6.9%  1.7%\n[libx264 @ 000001b497c9cdc0] ref B L1: 93.1%  6.9%\n[libx264 @ 000001b497c9cdc0] kb/s:12018.53\n",
  "seconds": 91.09321093559265,
  "probe_out": {}
}